<svg xmlns="http://www.w3.org/2000/svg" viewBox="0 0 64 64" fill="none">
  <rect width="64" height="64" rx="14" fill="#2563EB"/>
  <path d="M16 18C16 16.8954 16.8954 16 18 16H30V48H18C16.8954 48 16 47.1046 16 46V18Z" fill="white" opacity="0.9"/>
  <path d="M34 16H46C47.1046 16 48 16.8954 48 18V46C48 47.1046 47.1046 48 46 48H34V16Z" fill="white" opacity="0.7"/>
  <rect x="30" y="16" width="4" height="32" fill="white"/>
  <circle cx="21" cy="24" r="2" fill="#2563EB"/>
  <circle cx="25" cy="30" r="2" fill="#2563EB"/>
  <circle cx="21" cy="36" r="2" fill="#2563EB"/>
  <circle cx="25" cy="42" r="2" fill="#2563EB"/>
  <rect x="37" y="22" width="8" height="2" rx="1" fill="#2563EB" opacity="0.5"/>
  <rect x="37" y="28" width="6" height="2" rx="1" fill="#2563EB" opacity="0.5"/>
  <rect x="37" y="34" width="8" height="2" rx="1" fill="#2563EB" opacity="0.5"/>
  <rect x="37" y="40" width="5" height="2" rx="1" fill="#2563EB" opacity="0.5"/>
</svg>
